<svg id="svg" version="1.1" xmlns="http://www.w3.org/2000/svg" xmlns:xlink="http://www.w3.org/1999/xlink" width="400" height="400" viewBox="0, 0, 400,400"><g id="svgg"><path id="path0" d="M198.633 53.736 C 198.203 53.834,196.885 54.103,195.703 54.334 C 178.648 57.669,170.859 78.957,181.334 93.606 L 182.488 95.221 131.080 184.271 L 79.672 273.322 75.090 273.301 C 52.339 273.200,41.095 299.908,57.185 315.829 C 69.187 327.705,89.608 324.434,96.719 309.496 L 98.242 306.297 201.381 306.274 L 304.519 306.250 305.173 308.015 C 309.619 320.011,325.575 326.471,337.695 321.182 C 362.989 310.144,355.100 273.440,327.397 273.270 L 322.958 273.242 272.192 185.352 C 212.451 81.923,219.893 95.508,221.640 93.076 C 231.708 79.062,224.329 58.721,207.646 54.499 C 205.201 53.880,199.950 53.436,198.633 53.736 M193.359 155.051 L 193.359 201.117 190.527 202.485 C 181.200 206.988,175.347 217.433,176.534 227.456 C 176.705 228.895,176.652 229.835,176.389 230.042 C 175.488 230.752,97.180 275.826,97.059 275.704 C 96.919 275.565,193.008 108.984,193.228 108.984 C 193.300 108.984,193.359 129.714,193.359 155.051 M257.941 192.773 C 284.247 238.320,305.713 275.649,305.643 275.726 C 305.572 275.802,287.619 265.533,265.746 252.906 L 225.977 229.946 225.977 225.032 C 225.977 214.486,220.390 205.804,211.232 202.114 L 209.378 201.367 209.388 155.078 C 209.395 127.029,209.539 109.020,209.755 109.375 C 209.951 109.697,231.634 147.227,257.941 192.773 M189.147 246.802 C 197.378 251.470,209.150 250.669,216.373 244.948 L 217.816 243.805 257.443 266.671 C 279.238 279.247,297.237 289.693,297.441 289.885 C 297.659 290.090,258.046 290.234,201.367 290.234 C 141.507 290.234,105.063 290.096,105.293 289.869 C 105.497 289.668,123.488 279.215,145.272 266.640 L 184.880 243.777 185.982 244.704 C 186.588 245.214,188.012 246.158,189.147 246.802 " stroke="none" fill="#dbb3d3" fill-rule="evenodd"></path><path id="path1" d="M86.523 0.263 C 34.421 4.877,7.746 29.679,0.889 79.883 C -0.184 87.738,-0.184 312.262,0.889 320.117 C 7.456 368.201,31.799 392.544,79.883 399.111 C 87.738 400.184,312.262 400.184,320.117 399.111 C 368.201 392.544,392.544 368.201,399.111 320.117 C 400.184 312.262,400.184 87.738,399.111 79.883 C 392.559 31.908,368.596 7.832,320.508 0.907 C 316.204 0.288,93.180 -0.327,86.523 0.263 M207.646 54.499 C 224.329 58.721,231.708 79.062,221.640 93.076 C 219.893 95.508,212.451 81.923,272.192 185.352 L 322.958 273.242 327.397 273.270 C 355.100 273.440,362.989 310.144,337.695 321.182 C 325.575 326.471,309.619 320.011,305.173 308.015 L 304.519 306.250 201.381 306.274 L 98.242 306.297 96.719 309.496 C 89.608 324.434,69.187 327.705,57.185 315.829 C 41.095 299.908,52.339 273.200,75.090 273.301 L 79.672 273.322 131.080 184.271 L 182.488 95.221 181.334 93.606 C 170.859 78.957,178.648 57.669,195.703 54.334 C 196.885 54.103,198.203 53.834,198.633 53.736 C 199.950 53.436,205.201 53.880,207.646 54.499 M145.013 192.279 C 118.566 238.092,96.987 275.633,97.059 275.704 C 97.180 275.826,175.488 230.752,176.389 230.042 C 176.652 229.835,176.705 228.895,176.534 227.456 C 175.347 217.433,181.200 206.988,190.527 202.485 L 193.359 201.117 193.359 155.051 C 193.359 129.714,193.300 108.984,193.228 108.984 C 193.156 108.984,171.459 146.467,145.013 192.279 M209.388 155.078 L 209.378 201.367 211.232 202.114 C 220.390 205.804,225.977 214.486,225.977 225.032 L 225.977 229.946 265.746 252.906 C 287.619 265.533,305.572 275.802,305.643 275.726 C 305.734 275.626,212.631 114.107,209.755 109.375 C 209.539 109.020,209.395 127.029,209.388 155.078 M145.272 266.640 C 123.488 279.215,105.497 289.668,105.293 289.869 C 105.063 290.096,141.507 290.234,201.367 290.234 C 258.046 290.234,297.659 290.090,297.441 289.885 C 297.237 289.693,279.238 279.247,257.443 266.671 L 217.816 243.805 216.373 244.948 C 208.066 251.527,193.956 251.414,185.982 244.704 L 184.880 243.777 145.272 266.640 " stroke="none" fill="#141c34" fill-rule="evenodd"></path></g></svg>